%TF.GenerationSoftware,KiCad,Pcbnew,(5.1.10)-1*%
%TF.CreationDate,2022-03-11T09:02:51-05:00*%
%TF.ProjectId,Z180GDC,5a313830-4744-4432-9e6b-696361645f70,rev?*%
%TF.SameCoordinates,Original*%
%TF.FileFunction,OtherDrawing,Comment*%
%FSLAX46Y46*%
G04 Gerber Fmt 4.6, Leading zero omitted, Abs format (unit mm)*
G04 Created by KiCad (PCBNEW (5.1.10)-1) date 2022-03-11 09:02:51*
%MOMM*%
%LPD*%
G01*
G04 APERTURE LIST*
%ADD10C,0.120000*%
%ADD11C,0.150000*%
G04 APERTURE END LIST*
D10*
X232664000Y-35560000D02*
X258064000Y-35560000D01*
X245364000Y-46736000D02*
X245364000Y-16510000D01*
X258064000Y-46736000D02*
X232664000Y-46736000D01*
X258064000Y-16510000D02*
X258064000Y-46736000D01*
X232664000Y-16510000D02*
X258064000Y-16510000D01*
X232664000Y-46736000D02*
X232664000Y-16510000D01*
D11*
X329477714Y-184887809D02*
X330144380Y-184887809D01*
X329096761Y-185125904D02*
X329811047Y-185364000D01*
X329811047Y-184744952D01*
X330049142Y-184364000D02*
X330096761Y-184316380D01*
X330144380Y-184364000D01*
X330096761Y-184411619D01*
X330049142Y-184364000D01*
X330144380Y-184364000D01*
X329144380Y-183697333D02*
X329144380Y-183602095D01*
X329192000Y-183506857D01*
X329239619Y-183459238D01*
X329334857Y-183411619D01*
X329525333Y-183364000D01*
X329763428Y-183364000D01*
X329953904Y-183411619D01*
X330049142Y-183459238D01*
X330096761Y-183506857D01*
X330144380Y-183602095D01*
X330144380Y-183697333D01*
X330096761Y-183792571D01*
X330049142Y-183840190D01*
X329953904Y-183887809D01*
X329763428Y-183935428D01*
X329525333Y-183935428D01*
X329334857Y-183887809D01*
X329239619Y-183840190D01*
X329192000Y-183792571D01*
X329144380Y-183697333D01*
X329144380Y-182744952D02*
X329144380Y-182649714D01*
X329192000Y-182554476D01*
X329239619Y-182506857D01*
X329334857Y-182459238D01*
X329525333Y-182411619D01*
X329763428Y-182411619D01*
X329953904Y-182459238D01*
X330049142Y-182506857D01*
X330096761Y-182554476D01*
X330144380Y-182649714D01*
X330144380Y-182744952D01*
X330096761Y-182840190D01*
X330049142Y-182887809D01*
X329953904Y-182935428D01*
X329763428Y-182983047D01*
X329525333Y-182983047D01*
X329334857Y-182935428D01*
X329239619Y-182887809D01*
X329192000Y-182840190D01*
X329144380Y-182744952D01*
X329144380Y-181792571D02*
X329144380Y-181697333D01*
X329192000Y-181602095D01*
X329239619Y-181554476D01*
X329334857Y-181506857D01*
X329525333Y-181459238D01*
X329763428Y-181459238D01*
X329953904Y-181506857D01*
X330049142Y-181554476D01*
X330096761Y-181602095D01*
X330144380Y-181697333D01*
X330144380Y-181792571D01*
X330096761Y-181887809D01*
X330049142Y-181935428D01*
X329953904Y-181983047D01*
X329763428Y-182030666D01*
X329525333Y-182030666D01*
X329334857Y-181983047D01*
X329239619Y-181935428D01*
X329192000Y-181887809D01*
X329144380Y-181792571D01*
X329144380Y-180840190D02*
X329144380Y-180744952D01*
X329192000Y-180649714D01*
X329239619Y-180602095D01*
X329334857Y-180554476D01*
X329525333Y-180506857D01*
X329763428Y-180506857D01*
X329953904Y-180554476D01*
X330049142Y-180602095D01*
X330096761Y-180649714D01*
X330144380Y-180744952D01*
X330144380Y-180840190D01*
X330096761Y-180935428D01*
X330049142Y-180983047D01*
X329953904Y-181030666D01*
X329763428Y-181078285D01*
X329525333Y-181078285D01*
X329334857Y-181030666D01*
X329239619Y-180983047D01*
X329192000Y-180935428D01*
X329144380Y-180840190D01*
X330144380Y-179316380D02*
X329477714Y-179316380D01*
X329144380Y-179316380D02*
X329192000Y-179364000D01*
X329239619Y-179316380D01*
X329192000Y-179268761D01*
X329144380Y-179316380D01*
X329239619Y-179316380D01*
X329477714Y-178840190D02*
X330144380Y-178840190D01*
X329572952Y-178840190D02*
X329525333Y-178792571D01*
X329477714Y-178697333D01*
X329477714Y-178554476D01*
X329525333Y-178459238D01*
X329620571Y-178411619D01*
X330144380Y-178411619D01*
D10*
X328422000Y-232664000D02*
X328422000Y-131064000D01*
X308864000Y-232664000D02*
X329008421Y-232664000D01*
X308864000Y-131064000D02*
X329008421Y-131064000D01*
X328422000Y-131064000D02*
X329008421Y-132190504D01*
X328422000Y-131064000D02*
X327835579Y-132190504D01*
X328422000Y-232664000D02*
X329008421Y-231537496D01*
X328422000Y-232664000D02*
X327835579Y-231537496D01*
D11*
X96337809Y-247356380D02*
X95861619Y-247356380D01*
X95814000Y-247832571D01*
X95861619Y-247784952D01*
X95956857Y-247737333D01*
X96194952Y-247737333D01*
X96290190Y-247784952D01*
X96337809Y-247832571D01*
X96385428Y-247927809D01*
X96385428Y-248165904D01*
X96337809Y-248261142D01*
X96290190Y-248308761D01*
X96194952Y-248356380D01*
X95956857Y-248356380D01*
X95861619Y-248308761D01*
X95814000Y-248261142D01*
X96814000Y-248261142D02*
X96861619Y-248308761D01*
X96814000Y-248356380D01*
X96766380Y-248308761D01*
X96814000Y-248261142D01*
X96814000Y-248356380D01*
X97766380Y-247356380D02*
X97290190Y-247356380D01*
X97242571Y-247832571D01*
X97290190Y-247784952D01*
X97385428Y-247737333D01*
X97623523Y-247737333D01*
X97718761Y-247784952D01*
X97766380Y-247832571D01*
X97814000Y-247927809D01*
X97814000Y-248165904D01*
X97766380Y-248261142D01*
X97718761Y-248308761D01*
X97623523Y-248356380D01*
X97385428Y-248356380D01*
X97290190Y-248308761D01*
X97242571Y-248261142D01*
X98433047Y-247356380D02*
X98528285Y-247356380D01*
X98623523Y-247404000D01*
X98671142Y-247451619D01*
X98718761Y-247546857D01*
X98766380Y-247737333D01*
X98766380Y-247975428D01*
X98718761Y-248165904D01*
X98671142Y-248261142D01*
X98623523Y-248308761D01*
X98528285Y-248356380D01*
X98433047Y-248356380D01*
X98337809Y-248308761D01*
X98290190Y-248261142D01*
X98242571Y-248165904D01*
X98194952Y-247975428D01*
X98194952Y-247737333D01*
X98242571Y-247546857D01*
X98290190Y-247451619D01*
X98337809Y-247404000D01*
X98433047Y-247356380D01*
X99385428Y-247356380D02*
X99480666Y-247356380D01*
X99575904Y-247404000D01*
X99623523Y-247451619D01*
X99671142Y-247546857D01*
X99718761Y-247737333D01*
X99718761Y-247975428D01*
X99671142Y-248165904D01*
X99623523Y-248261142D01*
X99575904Y-248308761D01*
X99480666Y-248356380D01*
X99385428Y-248356380D01*
X99290190Y-248308761D01*
X99242571Y-248261142D01*
X99194952Y-248165904D01*
X99147333Y-247975428D01*
X99147333Y-247737333D01*
X99194952Y-247546857D01*
X99242571Y-247451619D01*
X99290190Y-247404000D01*
X99385428Y-247356380D01*
X100337809Y-247356380D02*
X100433047Y-247356380D01*
X100528285Y-247404000D01*
X100575904Y-247451619D01*
X100623523Y-247546857D01*
X100671142Y-247737333D01*
X100671142Y-247975428D01*
X100623523Y-248165904D01*
X100575904Y-248261142D01*
X100528285Y-248308761D01*
X100433047Y-248356380D01*
X100337809Y-248356380D01*
X100242571Y-248308761D01*
X100194952Y-248261142D01*
X100147333Y-248165904D01*
X100099714Y-247975428D01*
X100099714Y-247737333D01*
X100147333Y-247546857D01*
X100194952Y-247451619D01*
X100242571Y-247404000D01*
X100337809Y-247356380D01*
X101861619Y-248356380D02*
X101861619Y-247689714D01*
X101861619Y-247356380D02*
X101814000Y-247404000D01*
X101861619Y-247451619D01*
X101909238Y-247404000D01*
X101861619Y-247356380D01*
X101861619Y-247451619D01*
X102337809Y-247689714D02*
X102337809Y-248356380D01*
X102337809Y-247784952D02*
X102385428Y-247737333D01*
X102480666Y-247689714D01*
X102623523Y-247689714D01*
X102718761Y-247737333D01*
X102766380Y-247832571D01*
X102766380Y-248356380D01*
D10*
X29464000Y-246634000D02*
X169164000Y-246634000D01*
X29464000Y-232664000D02*
X29464000Y-247220421D01*
X169164000Y-232664000D02*
X169164000Y-247220421D01*
X169164000Y-246634000D02*
X168037496Y-247220421D01*
X169164000Y-246634000D02*
X168037496Y-246047579D01*
X29464000Y-246634000D02*
X30590504Y-247220421D01*
X29464000Y-246634000D02*
X30590504Y-246047579D01*
D11*
X165759238Y-21026380D02*
X165187809Y-21026380D01*
X165473523Y-21026380D02*
X165473523Y-20026380D01*
X165378285Y-20169238D01*
X165283047Y-20264476D01*
X165187809Y-20312095D01*
X166711619Y-21026380D02*
X166140190Y-21026380D01*
X166425904Y-21026380D02*
X166425904Y-20026380D01*
X166330666Y-20169238D01*
X166235428Y-20264476D01*
X166140190Y-20312095D01*
X167140190Y-20931142D02*
X167187809Y-20978761D01*
X167140190Y-21026380D01*
X167092571Y-20978761D01*
X167140190Y-20931142D01*
X167140190Y-21026380D01*
X167806857Y-20026380D02*
X167902095Y-20026380D01*
X167997333Y-20074000D01*
X168044952Y-20121619D01*
X168092571Y-20216857D01*
X168140190Y-20407333D01*
X168140190Y-20645428D01*
X168092571Y-20835904D01*
X168044952Y-20931142D01*
X167997333Y-20978761D01*
X167902095Y-21026380D01*
X167806857Y-21026380D01*
X167711619Y-20978761D01*
X167664000Y-20931142D01*
X167616380Y-20835904D01*
X167568761Y-20645428D01*
X167568761Y-20407333D01*
X167616380Y-20216857D01*
X167664000Y-20121619D01*
X167711619Y-20074000D01*
X167806857Y-20026380D01*
X168759238Y-20026380D02*
X168854476Y-20026380D01*
X168949714Y-20074000D01*
X168997333Y-20121619D01*
X169044952Y-20216857D01*
X169092571Y-20407333D01*
X169092571Y-20645428D01*
X169044952Y-20835904D01*
X168997333Y-20931142D01*
X168949714Y-20978761D01*
X168854476Y-21026380D01*
X168759238Y-21026380D01*
X168664000Y-20978761D01*
X168616380Y-20931142D01*
X168568761Y-20835904D01*
X168521142Y-20645428D01*
X168521142Y-20407333D01*
X168568761Y-20216857D01*
X168616380Y-20121619D01*
X168664000Y-20074000D01*
X168759238Y-20026380D01*
X169711619Y-20026380D02*
X169806857Y-20026380D01*
X169902095Y-20074000D01*
X169949714Y-20121619D01*
X169997333Y-20216857D01*
X170044952Y-20407333D01*
X170044952Y-20645428D01*
X169997333Y-20835904D01*
X169949714Y-20931142D01*
X169902095Y-20978761D01*
X169806857Y-21026380D01*
X169711619Y-21026380D01*
X169616380Y-20978761D01*
X169568761Y-20931142D01*
X169521142Y-20835904D01*
X169473523Y-20645428D01*
X169473523Y-20407333D01*
X169521142Y-20216857D01*
X169568761Y-20121619D01*
X169616380Y-20074000D01*
X169711619Y-20026380D01*
X170664000Y-20026380D02*
X170759238Y-20026380D01*
X170854476Y-20074000D01*
X170902095Y-20121619D01*
X170949714Y-20216857D01*
X170997333Y-20407333D01*
X170997333Y-20645428D01*
X170949714Y-20835904D01*
X170902095Y-20931142D01*
X170854476Y-20978761D01*
X170759238Y-21026380D01*
X170664000Y-21026380D01*
X170568761Y-20978761D01*
X170521142Y-20931142D01*
X170473523Y-20835904D01*
X170425904Y-20645428D01*
X170425904Y-20407333D01*
X170473523Y-20216857D01*
X170521142Y-20121619D01*
X170568761Y-20074000D01*
X170664000Y-20026380D01*
X172187809Y-21026380D02*
X172187809Y-20359714D01*
X172187809Y-20026380D02*
X172140190Y-20074000D01*
X172187809Y-20121619D01*
X172235428Y-20074000D01*
X172187809Y-20026380D01*
X172187809Y-20121619D01*
X172664000Y-20359714D02*
X172664000Y-21026380D01*
X172664000Y-20454952D02*
X172711619Y-20407333D01*
X172806857Y-20359714D01*
X172949714Y-20359714D01*
X173044952Y-20407333D01*
X173092571Y-20502571D01*
X173092571Y-21026380D01*
D10*
X308864000Y-21844000D02*
X29464000Y-21844000D01*
X308864000Y-29464000D02*
X308864000Y-21257579D01*
X29464000Y-29464000D02*
X29464000Y-21257579D01*
X29464000Y-21844000D02*
X30590504Y-21257579D01*
X29464000Y-21844000D02*
X30590504Y-22430421D01*
X308864000Y-21844000D02*
X307737496Y-21257579D01*
X308864000Y-21844000D02*
X307737496Y-22430421D01*
D11*
X317634952Y-134373523D02*
X317587333Y-134468761D01*
X317539714Y-134516380D01*
X317444476Y-134564000D01*
X317396857Y-134564000D01*
X317301619Y-134516380D01*
X317254000Y-134468761D01*
X317206380Y-134373523D01*
X317206380Y-134183047D01*
X317254000Y-134087809D01*
X317301619Y-134040190D01*
X317396857Y-133992571D01*
X317444476Y-133992571D01*
X317539714Y-134040190D01*
X317587333Y-134087809D01*
X317634952Y-134183047D01*
X317634952Y-134373523D01*
X317682571Y-134468761D01*
X317730190Y-134516380D01*
X317825428Y-134564000D01*
X318015904Y-134564000D01*
X318111142Y-134516380D01*
X318158761Y-134468761D01*
X318206380Y-134373523D01*
X318206380Y-134183047D01*
X318158761Y-134087809D01*
X318111142Y-134040190D01*
X318015904Y-133992571D01*
X317825428Y-133992571D01*
X317730190Y-134040190D01*
X317682571Y-134087809D01*
X317634952Y-134183047D01*
X318111142Y-133564000D02*
X318158761Y-133516380D01*
X318206380Y-133564000D01*
X318158761Y-133611619D01*
X318111142Y-133564000D01*
X318206380Y-133564000D01*
X317206380Y-132897333D02*
X317206380Y-132802095D01*
X317254000Y-132706857D01*
X317301619Y-132659238D01*
X317396857Y-132611619D01*
X317587333Y-132564000D01*
X317825428Y-132564000D01*
X318015904Y-132611619D01*
X318111142Y-132659238D01*
X318158761Y-132706857D01*
X318206380Y-132802095D01*
X318206380Y-132897333D01*
X318158761Y-132992571D01*
X318111142Y-133040190D01*
X318015904Y-133087809D01*
X317825428Y-133135428D01*
X317587333Y-133135428D01*
X317396857Y-133087809D01*
X317301619Y-133040190D01*
X317254000Y-132992571D01*
X317206380Y-132897333D01*
X317206380Y-131944952D02*
X317206380Y-131849714D01*
X317254000Y-131754476D01*
X317301619Y-131706857D01*
X317396857Y-131659238D01*
X317587333Y-131611619D01*
X317825428Y-131611619D01*
X318015904Y-131659238D01*
X318111142Y-131706857D01*
X318158761Y-131754476D01*
X318206380Y-131849714D01*
X318206380Y-131944952D01*
X318158761Y-132040190D01*
X318111142Y-132087809D01*
X318015904Y-132135428D01*
X317825428Y-132183047D01*
X317587333Y-132183047D01*
X317396857Y-132135428D01*
X317301619Y-132087809D01*
X317254000Y-132040190D01*
X317206380Y-131944952D01*
X317206380Y-130992571D02*
X317206380Y-130897333D01*
X317254000Y-130802095D01*
X317301619Y-130754476D01*
X317396857Y-130706857D01*
X317587333Y-130659238D01*
X317825428Y-130659238D01*
X318015904Y-130706857D01*
X318111142Y-130754476D01*
X318158761Y-130802095D01*
X318206380Y-130897333D01*
X318206380Y-130992571D01*
X318158761Y-131087809D01*
X318111142Y-131135428D01*
X318015904Y-131183047D01*
X317825428Y-131230666D01*
X317587333Y-131230666D01*
X317396857Y-131183047D01*
X317301619Y-131135428D01*
X317254000Y-131087809D01*
X317206380Y-130992571D01*
X317206380Y-130040190D02*
X317206380Y-129944952D01*
X317254000Y-129849714D01*
X317301619Y-129802095D01*
X317396857Y-129754476D01*
X317587333Y-129706857D01*
X317825428Y-129706857D01*
X318015904Y-129754476D01*
X318111142Y-129802095D01*
X318158761Y-129849714D01*
X318206380Y-129944952D01*
X318206380Y-130040190D01*
X318158761Y-130135428D01*
X318111142Y-130183047D01*
X318015904Y-130230666D01*
X317825428Y-130278285D01*
X317587333Y-130278285D01*
X317396857Y-130230666D01*
X317301619Y-130183047D01*
X317254000Y-130135428D01*
X317206380Y-130040190D01*
X318206380Y-128516380D02*
X317539714Y-128516380D01*
X317206380Y-128516380D02*
X317254000Y-128564000D01*
X317301619Y-128516380D01*
X317254000Y-128468761D01*
X317206380Y-128516380D01*
X317301619Y-128516380D01*
X317539714Y-128040190D02*
X318206380Y-128040190D01*
X317634952Y-128040190D02*
X317587333Y-127992571D01*
X317539714Y-127897333D01*
X317539714Y-127754476D01*
X317587333Y-127659238D01*
X317682571Y-127611619D01*
X318206380Y-127611619D01*
D10*
X316484000Y-232664000D02*
X316484000Y-29464000D01*
X308864000Y-232664000D02*
X317070421Y-232664000D01*
X308864000Y-29464000D02*
X317070421Y-29464000D01*
X316484000Y-29464000D02*
X317070421Y-30590504D01*
X316484000Y-29464000D02*
X315897579Y-30590504D01*
X316484000Y-232664000D02*
X317070421Y-231537496D01*
X316484000Y-232664000D02*
X315897579Y-231537496D01*
D11*
X20454952Y-134373523D02*
X20407333Y-134468761D01*
X20359714Y-134516380D01*
X20264476Y-134564000D01*
X20216857Y-134564000D01*
X20121619Y-134516380D01*
X20074000Y-134468761D01*
X20026380Y-134373523D01*
X20026380Y-134183047D01*
X20074000Y-134087809D01*
X20121619Y-134040190D01*
X20216857Y-133992571D01*
X20264476Y-133992571D01*
X20359714Y-134040190D01*
X20407333Y-134087809D01*
X20454952Y-134183047D01*
X20454952Y-134373523D01*
X20502571Y-134468761D01*
X20550190Y-134516380D01*
X20645428Y-134564000D01*
X20835904Y-134564000D01*
X20931142Y-134516380D01*
X20978761Y-134468761D01*
X21026380Y-134373523D01*
X21026380Y-134183047D01*
X20978761Y-134087809D01*
X20931142Y-134040190D01*
X20835904Y-133992571D01*
X20645428Y-133992571D01*
X20550190Y-134040190D01*
X20502571Y-134087809D01*
X20454952Y-134183047D01*
X20931142Y-133564000D02*
X20978761Y-133516380D01*
X21026380Y-133564000D01*
X20978761Y-133611619D01*
X20931142Y-133564000D01*
X21026380Y-133564000D01*
X20026380Y-132897333D02*
X20026380Y-132802095D01*
X20074000Y-132706857D01*
X20121619Y-132659238D01*
X20216857Y-132611619D01*
X20407333Y-132564000D01*
X20645428Y-132564000D01*
X20835904Y-132611619D01*
X20931142Y-132659238D01*
X20978761Y-132706857D01*
X21026380Y-132802095D01*
X21026380Y-132897333D01*
X20978761Y-132992571D01*
X20931142Y-133040190D01*
X20835904Y-133087809D01*
X20645428Y-133135428D01*
X20407333Y-133135428D01*
X20216857Y-133087809D01*
X20121619Y-133040190D01*
X20074000Y-132992571D01*
X20026380Y-132897333D01*
X20026380Y-131944952D02*
X20026380Y-131849714D01*
X20074000Y-131754476D01*
X20121619Y-131706857D01*
X20216857Y-131659238D01*
X20407333Y-131611619D01*
X20645428Y-131611619D01*
X20835904Y-131659238D01*
X20931142Y-131706857D01*
X20978761Y-131754476D01*
X21026380Y-131849714D01*
X21026380Y-131944952D01*
X20978761Y-132040190D01*
X20931142Y-132087809D01*
X20835904Y-132135428D01*
X20645428Y-132183047D01*
X20407333Y-132183047D01*
X20216857Y-132135428D01*
X20121619Y-132087809D01*
X20074000Y-132040190D01*
X20026380Y-131944952D01*
X20026380Y-130992571D02*
X20026380Y-130897333D01*
X20074000Y-130802095D01*
X20121619Y-130754476D01*
X20216857Y-130706857D01*
X20407333Y-130659238D01*
X20645428Y-130659238D01*
X20835904Y-130706857D01*
X20931142Y-130754476D01*
X20978761Y-130802095D01*
X21026380Y-130897333D01*
X21026380Y-130992571D01*
X20978761Y-131087809D01*
X20931142Y-131135428D01*
X20835904Y-131183047D01*
X20645428Y-131230666D01*
X20407333Y-131230666D01*
X20216857Y-131183047D01*
X20121619Y-131135428D01*
X20074000Y-131087809D01*
X20026380Y-130992571D01*
X20026380Y-130040190D02*
X20026380Y-129944952D01*
X20074000Y-129849714D01*
X20121619Y-129802095D01*
X20216857Y-129754476D01*
X20407333Y-129706857D01*
X20645428Y-129706857D01*
X20835904Y-129754476D01*
X20931142Y-129802095D01*
X20978761Y-129849714D01*
X21026380Y-129944952D01*
X21026380Y-130040190D01*
X20978761Y-130135428D01*
X20931142Y-130183047D01*
X20835904Y-130230666D01*
X20645428Y-130278285D01*
X20407333Y-130278285D01*
X20216857Y-130230666D01*
X20121619Y-130183047D01*
X20074000Y-130135428D01*
X20026380Y-130040190D01*
X21026380Y-128516380D02*
X20359714Y-128516380D01*
X20026380Y-128516380D02*
X20074000Y-128564000D01*
X20121619Y-128516380D01*
X20074000Y-128468761D01*
X20026380Y-128516380D01*
X20121619Y-128516380D01*
X20359714Y-128040190D02*
X21026380Y-128040190D01*
X20454952Y-128040190D02*
X20407333Y-127992571D01*
X20359714Y-127897333D01*
X20359714Y-127754476D01*
X20407333Y-127659238D01*
X20502571Y-127611619D01*
X21026380Y-127611619D01*
D10*
X21844000Y-232664000D02*
X21844000Y-29464000D01*
X29464000Y-232664000D02*
X21257579Y-232664000D01*
X29464000Y-29464000D02*
X21257579Y-29464000D01*
X21844000Y-29464000D02*
X22430421Y-30590504D01*
X21844000Y-29464000D02*
X21257579Y-30590504D01*
X21844000Y-232664000D02*
X22430421Y-231537496D01*
X21844000Y-232664000D02*
X21257579Y-231537496D01*
D11*
X165759238Y-242006380D02*
X165187809Y-242006380D01*
X165473523Y-242006380D02*
X165473523Y-241006380D01*
X165378285Y-241149238D01*
X165283047Y-241244476D01*
X165187809Y-241292095D01*
X166711619Y-242006380D02*
X166140190Y-242006380D01*
X166425904Y-242006380D02*
X166425904Y-241006380D01*
X166330666Y-241149238D01*
X166235428Y-241244476D01*
X166140190Y-241292095D01*
X167140190Y-241911142D02*
X167187809Y-241958761D01*
X167140190Y-242006380D01*
X167092571Y-241958761D01*
X167140190Y-241911142D01*
X167140190Y-242006380D01*
X167806857Y-241006380D02*
X167902095Y-241006380D01*
X167997333Y-241054000D01*
X168044952Y-241101619D01*
X168092571Y-241196857D01*
X168140190Y-241387333D01*
X168140190Y-241625428D01*
X168092571Y-241815904D01*
X168044952Y-241911142D01*
X167997333Y-241958761D01*
X167902095Y-242006380D01*
X167806857Y-242006380D01*
X167711619Y-241958761D01*
X167664000Y-241911142D01*
X167616380Y-241815904D01*
X167568761Y-241625428D01*
X167568761Y-241387333D01*
X167616380Y-241196857D01*
X167664000Y-241101619D01*
X167711619Y-241054000D01*
X167806857Y-241006380D01*
X168759238Y-241006380D02*
X168854476Y-241006380D01*
X168949714Y-241054000D01*
X168997333Y-241101619D01*
X169044952Y-241196857D01*
X169092571Y-241387333D01*
X169092571Y-241625428D01*
X169044952Y-241815904D01*
X168997333Y-241911142D01*
X168949714Y-241958761D01*
X168854476Y-242006380D01*
X168759238Y-242006380D01*
X168664000Y-241958761D01*
X168616380Y-241911142D01*
X168568761Y-241815904D01*
X168521142Y-241625428D01*
X168521142Y-241387333D01*
X168568761Y-241196857D01*
X168616380Y-241101619D01*
X168664000Y-241054000D01*
X168759238Y-241006380D01*
X169711619Y-241006380D02*
X169806857Y-241006380D01*
X169902095Y-241054000D01*
X169949714Y-241101619D01*
X169997333Y-241196857D01*
X170044952Y-241387333D01*
X170044952Y-241625428D01*
X169997333Y-241815904D01*
X169949714Y-241911142D01*
X169902095Y-241958761D01*
X169806857Y-242006380D01*
X169711619Y-242006380D01*
X169616380Y-241958761D01*
X169568761Y-241911142D01*
X169521142Y-241815904D01*
X169473523Y-241625428D01*
X169473523Y-241387333D01*
X169521142Y-241196857D01*
X169568761Y-241101619D01*
X169616380Y-241054000D01*
X169711619Y-241006380D01*
X170664000Y-241006380D02*
X170759238Y-241006380D01*
X170854476Y-241054000D01*
X170902095Y-241101619D01*
X170949714Y-241196857D01*
X170997333Y-241387333D01*
X170997333Y-241625428D01*
X170949714Y-241815904D01*
X170902095Y-241911142D01*
X170854476Y-241958761D01*
X170759238Y-242006380D01*
X170664000Y-242006380D01*
X170568761Y-241958761D01*
X170521142Y-241911142D01*
X170473523Y-241815904D01*
X170425904Y-241625428D01*
X170425904Y-241387333D01*
X170473523Y-241196857D01*
X170521142Y-241101619D01*
X170568761Y-241054000D01*
X170664000Y-241006380D01*
X172187809Y-242006380D02*
X172187809Y-241339714D01*
X172187809Y-241006380D02*
X172140190Y-241054000D01*
X172187809Y-241101619D01*
X172235428Y-241054000D01*
X172187809Y-241006380D01*
X172187809Y-241101619D01*
X172664000Y-241339714D02*
X172664000Y-242006380D01*
X172664000Y-241434952D02*
X172711619Y-241387333D01*
X172806857Y-241339714D01*
X172949714Y-241339714D01*
X173044952Y-241387333D01*
X173092571Y-241482571D01*
X173092571Y-242006380D01*
D10*
X29464000Y-240284000D02*
X308864000Y-240284000D01*
X29464000Y-232664000D02*
X29464000Y-240870421D01*
X308864000Y-232664000D02*
X308864000Y-240870421D01*
X308864000Y-240284000D02*
X307737496Y-240870421D01*
X308864000Y-240284000D02*
X307737496Y-239697579D01*
X29464000Y-240284000D02*
X30590504Y-240870421D01*
X29464000Y-240284000D02*
X30590504Y-239697579D01*
M02*
