M48
; DRILL file {KiCad (5.1.10)-1} date 03/11/22 09:02:56
; FORMAT={-:-/ absolute / inch / decimal}
; #@! TF.CreationDate,2022-03-11T09:02:56-05:00
; #@! TF.GenerationSoftware,Kicad,Pcbnew,(5.1.10)-1
; #@! TF.FileFunction,Plated,1,2,PTH
FMAT,2
INCH
T1C0.0197
T2C0.0230
T3C0.0295
T4C0.0315
T5C0.0354
T6C0.0354
T7C0.0394
T8C0.0433
T9C0.0512
T10C0.0591
T11C0.0700
T12C0.0905
T13C0.1260
T14C0.1260
%
G90
G05
T1
X3.3252Y-7.4
X3.4Y-7.4
T2
X1.8489Y-7.5955
X2.4641Y-3.1978
X2.4765Y-3.1428
X2.4981Y-2.9518
X2.5019Y-2.5474
X2.5133Y-3.009
X2.5609Y-3.1017
X2.5885Y-6.6749
X2.6741Y-2.2946
X2.8128Y-6.2875
X2.8462Y-6.584
X2.8622Y-6.7443
X2.8874Y-6.9451
X2.921Y-3.8243
X2.9214Y-3.7809
X3.0257Y-7.0741
X3.0282Y-7.8805
X3.1007Y-8.0412
X3.2743Y-6.845
X3.3842Y-8.9017
X3.3907Y-6.9933
X3.4087Y-8.4273
X3.4103Y-5.9426
X3.4974Y-7.0451
X3.6245Y-8.2187
X3.751Y-6.6547
X3.786Y-3.2931
X3.8354Y-7.9037
X3.859Y-8.0337
X3.908Y-3.0852
X3.9592Y-7.061
X4.0004Y-6.9933
X4.047Y-4.6048
X4.0649Y-7.9753
X4.0766Y-4.83
X4.1845Y-7.0767
X4.2146Y-2.3379
X4.3652Y-7.5748
X4.4205Y-7.4685
X4.441Y-2.9749
X4.4426Y-7.1851
X4.5232Y-7.0343
X4.6457Y-5.0467
X4.6473Y-3.1245
X4.6814Y-5.8587
X4.7055Y-5.9491
X4.7445Y-8.1091
X4.7553Y-5.9725
X4.8023Y-5.4657
X4.8771Y-7.3805
X5.0193Y-5.995
X5.1536Y-7.175
X5.1563Y-5.6538
X5.1911Y-5.6884
X5.3242Y-8.2863
X5.3944Y-6.0153
X5.4581Y-4.7411
X5.47Y-5.4016
X5.5068Y-3.6679
X5.5423Y-2.7523
X5.5465Y-7.4288
X5.6404Y-5.0717
X5.6438Y-2.6497
X5.7818Y-4.8285
X5.8591Y-3.0069
X5.8957Y-5.2966
X5.9682Y-6.4016
X6.0435Y-8.393
X6.1532Y-4.6929
X6.2085Y-5.918
X6.254Y-6.4257
X6.3265Y-3.5823
X6.3469Y-5.9599
X6.3564Y-4.801
X6.4181Y-4.6386
X6.4385Y-4.066
X6.5604Y-6.4325
X6.5939Y-2.4278
X6.624Y-6.408
X6.7327Y-6.282
X6.7607Y-2.34
X6.8053Y-4.7953
X6.9897Y-3.4334
X7.0444Y-2.7045
X7.1787Y-4.7092
X7.2876Y-4.5851
X7.3013Y-4.6281
X7.4343Y-4.8255
X7.4983Y-4.4865
X7.4987Y-3.5717
X7.5892Y-3.4334
X7.6112Y-6.5624
X7.6272Y-6.4254
X7.6694Y-4.1083
X7.6803Y-3.4494
X7.7738Y-3.7052
X7.8808Y-4.7337
X8.0341Y-7.4222
X8.0436Y-3.1352
X8.0606Y-4.6145
X8.0897Y-4.5096
X8.1667Y-3.5505
X8.2094Y-3.5078
X8.283Y-6.0115
X8.3034Y-5.9185
X8.3309Y-3.4806
X8.3332Y-3.5722
X8.3982Y-2.9384
X8.4784Y-6.0615
X8.4792Y-3.2765
X8.5035Y-2.9941
X8.5088Y-7.59
X8.5107Y-3.3059
X8.5133Y-3.2465
X8.6103Y-2.1591
X8.6349Y-2.1216
X8.6871Y-2.2005
X8.7626Y-2.171
X8.8483Y-4.7031
X8.941Y-4.8184
X8.985Y-4.2807
X9.044Y-7.59
X9.0667Y-3.191
X9.0755Y-7.39
X9.1321Y-3.6853
X9.1321Y-4.5068
X9.2587Y-3.6015
X9.2778Y-4.7685
X9.2819Y-3.6527
X9.2882Y-7.09
X9.3019Y-7.038
X9.4891Y-7.7509
X9.5193Y-7.3967
X9.5245Y-4.15
X9.5255Y-6.4772
X9.5879Y-3.5551
X9.5879Y-4.9856
X9.6069Y-6.4213
X9.6369Y-4.4935
X9.6606Y-3.1877
X9.6862Y-7.0448
X9.726Y-3.8731
X9.7886Y-4.6711
X9.8789Y-4.814
X9.9004Y-4.5366
X9.9013Y-3.3498
X9.9013Y-3.3928
X9.9391Y-6.2862
X9.9861Y-7.59
X10.0077Y-7.39
X10.0283Y-7.19
X10.0606Y-4.8393
X10.0876Y-4.5907
X10.1053Y-3.0497
X10.3268Y-3.395
X10.5238Y-3.5664
X10.5271Y-7.59
X10.571Y-4.13
X10.5956Y-6.8356
X10.9433Y-5.1165
X10.9564Y-6.9335
X11.0446Y-7.39
X11.0449Y-7.59
X11.2511Y-7.9749
X11.2878Y-3.8952
X11.5204Y-4.07
X11.5341Y-7.5046
X11.7278Y-4.0077
T3
X10.56Y-1.74
X10.61Y-1.69
X10.66Y-1.74
X11.08Y-3.08
X11.13Y-3.03
X11.18Y-3.08
X11.3Y-1.74
X11.35Y-1.69
X11.4Y-1.74
T4
X1.23Y-3.88
X1.23Y-3.98
X1.23Y-4.08
X1.23Y-4.18
X1.23Y-4.28
X1.23Y-4.38
X1.23Y-4.48
X1.23Y-4.58
X1.23Y-4.89
X1.23Y-4.99
X1.23Y-5.09
X1.23Y-5.19
X1.23Y-5.29
X1.23Y-5.39
X1.23Y-5.49
X1.23Y-5.8
X1.23Y-5.9
X1.23Y-6.0
X1.23Y-6.1
X1.23Y-6.2
X1.23Y-6.3
X1.23Y-6.4
X1.23Y-6.5
X1.23Y-6.6
X1.23Y-6.7
X1.31Y-3.5
X1.34Y-2.39
X1.34Y-2.63
X1.34Y-3.26
X1.4084Y-3.5
X1.53Y-3.88
X1.53Y-3.98
X1.53Y-4.08
X1.53Y-4.18
X1.53Y-4.28
X1.53Y-4.38
X1.53Y-4.48
X1.53Y-4.58
X1.53Y-4.89
X1.53Y-4.99
X1.53Y-5.09
X1.53Y-5.19
X1.53Y-5.29
X1.53Y-5.39
X1.53Y-5.49
X1.53Y-5.8
X1.53Y-5.9
X1.53Y-6.0
X1.53Y-6.1
X1.53Y-6.2
X1.53Y-6.3
X1.53Y-6.4
X1.53Y-6.5
X1.53Y-6.6
X1.53Y-6.7
X1.57Y-3.5
X1.64Y-2.39
X1.64Y-2.63
X1.64Y-3.26
X1.6684Y-3.5
X1.718Y-4.89
X1.718Y-4.99
X1.718Y-5.09
X1.718Y-5.19
X1.718Y-5.29
X1.718Y-5.39
X1.718Y-5.49
X1.72Y-3.88
X1.72Y-3.98
X1.72Y-4.08
X1.72Y-4.18
X1.72Y-4.28
X1.72Y-4.38
X1.72Y-4.48
X1.72Y-4.58
X1.72Y-5.8
X1.72Y-5.9
X1.72Y-6.0
X1.72Y-6.1
X1.72Y-6.2
X1.72Y-6.3
X1.72Y-6.4
X1.72Y-6.5
X1.72Y-6.6
X1.72Y-6.7
X1.81Y-1.96
X1.81Y-2.26
X1.81Y-3.2
X1.81Y-3.5
X2.018Y-4.89
X2.018Y-4.99
X2.018Y-5.09
X2.018Y-5.19
X2.018Y-5.29
X2.018Y-5.39
X2.018Y-5.49
X2.02Y-3.88
X2.02Y-3.98
X2.02Y-4.08
X2.02Y-4.18
X2.02Y-4.28
X2.02Y-4.38
X2.02Y-4.48
X2.02Y-4.58
X2.02Y-5.8
X2.02Y-5.9
X2.02Y-6.0
X2.02Y-6.1
X2.02Y-6.2
X2.02Y-6.3
X2.02Y-6.4
X2.02Y-6.5
X2.02Y-6.6
X2.02Y-6.7
X2.15Y-1.73
X2.15Y-1.83
X2.15Y-1.93
X2.15Y-2.03
X2.15Y-2.13
X2.15Y-2.23
X2.15Y-2.33
X2.15Y-2.43
X2.15Y-2.53
X2.15Y-2.63
X2.15Y-2.73
X2.15Y-2.83
X2.15Y-2.93
X2.15Y-3.03
X2.15Y-3.13
X2.15Y-3.23
X2.15Y-3.33
X2.15Y-3.43
X2.15Y-3.53
X2.15Y-3.63
X2.21Y-3.88
X2.21Y-3.98
X2.21Y-4.08
X2.21Y-4.18
X2.21Y-4.28
X2.21Y-4.38
X2.21Y-4.48
X2.21Y-4.58
X2.21Y-4.89
X2.21Y-4.99
X2.21Y-5.09
X2.21Y-5.19
X2.21Y-5.29
X2.21Y-5.39
X2.21Y-5.49
X2.21Y-5.8
X2.21Y-5.9
X2.21Y-6.0
X2.21Y-6.1
X2.21Y-6.2
X2.21Y-6.3
X2.21Y-6.4
X2.21Y-6.5
X2.21Y-6.6
X2.21Y-6.7
X2.51Y-3.88
X2.51Y-3.98
X2.51Y-4.08
X2.51Y-4.18
X2.51Y-4.28
X2.51Y-4.38
X2.51Y-4.48
X2.51Y-4.58
X2.51Y-4.89
X2.51Y-4.99
X2.51Y-5.09
X2.51Y-5.19
X2.51Y-5.29
X2.51Y-5.39
X2.51Y-5.49
X2.51Y-5.8
X2.51Y-5.9
X2.51Y-6.0
X2.51Y-6.1
X2.51Y-6.2
X2.51Y-6.3
X2.51Y-6.4
X2.51Y-6.5
X2.51Y-6.6
X2.51Y-6.7
X2.53Y-8.13
X2.53Y-8.23
X2.53Y-8.33
X2.53Y-8.43
X2.53Y-8.53
X2.53Y-8.63
X2.53Y-8.73
X2.53Y-8.83
X2.53Y-8.93
X2.53Y-9.03
X2.6331Y-7.95
X2.7Y-6.14
X2.7Y-6.24
X2.7Y-6.34
X2.7Y-6.44
X2.7Y-6.54
X2.7Y-6.64
X2.7Y-6.74
X2.7Y-6.84
X2.72Y-4.1
X2.72Y-4.44
X2.72Y-5.14
X2.72Y-5.48
X2.75Y-1.73
X2.75Y-1.83
X2.75Y-1.93
X2.75Y-2.03
X2.75Y-2.13
X2.75Y-2.23
X2.75Y-2.33
X2.75Y-2.43
X2.75Y-2.53
X2.75Y-2.63
X2.75Y-2.73
X2.75Y-2.83
X2.75Y-2.93
X2.75Y-3.03
X2.75Y-3.13
X2.75Y-3.23
X2.75Y-3.33
X2.75Y-3.43
X2.75Y-3.53
X2.75Y-3.63
X2.8031Y-5.96
X2.8184Y-4.1
X2.8184Y-4.44
X2.8184Y-5.14
X2.8184Y-5.48
X2.83Y-7.95
X2.83Y-8.13
X2.83Y-8.23
X2.83Y-8.33
X2.83Y-8.43
X2.83Y-8.53
X2.83Y-8.63
X2.83Y-8.73
X2.83Y-8.83
X2.83Y-8.93
X2.83Y-9.03
X2.86Y-3.13
X2.86Y-3.3269
X2.93Y-3.93
X2.93Y-4.27
X2.93Y-4.61
X2.93Y-4.97
X2.93Y-5.31
X2.93Y-5.65
X2.95Y-1.92
X2.95Y-2.02
X2.95Y-2.12
X2.95Y-2.22
X2.95Y-2.32
X2.95Y-2.42
X2.95Y-2.52
X3.0Y-5.96
X3.0Y-6.14
X3.0Y-6.24
X3.0Y-6.34
X3.0Y-6.44
X3.0Y-6.54
X3.0Y-6.64
X3.0Y-6.74
X3.0Y-6.84
X3.01Y-8.13
X3.01Y-8.23
X3.01Y-8.33
X3.01Y-8.43
X3.01Y-8.53
X3.01Y-8.63
X3.01Y-8.73
X3.01Y-8.83
X3.01Y-8.93
X3.01Y-9.03
X3.0284Y-3.93
X3.0284Y-4.27
X3.0284Y-4.61
X3.0284Y-4.97
X3.0284Y-5.31
X3.0284Y-5.65
X3.04Y-2.91
X3.0531Y-1.74
X3.1131Y-7.95
X3.1384Y-2.91
X3.14Y-7.14
X3.14Y-7.44
X3.1587Y-4.968
X3.1587Y-5.068
X3.1587Y-5.168
X3.1587Y-5.268
X3.1587Y-5.368
X3.1587Y-5.468
X3.1587Y-5.568
X3.1587Y-5.668
X3.16Y-3.93
X3.16Y-4.03
X3.16Y-4.13
X3.16Y-4.23
X3.16Y-4.33
X3.16Y-4.43
X3.16Y-4.53
X3.16Y-4.63
X3.18Y-6.24
X3.18Y-6.34
X3.18Y-6.44
X3.18Y-6.54
X3.18Y-6.64
X3.18Y-6.74
X3.18Y-6.84
X3.25Y-1.74
X3.25Y-1.92
X3.25Y-2.02
X3.25Y-2.12
X3.25Y-2.22
X3.25Y-2.32
X3.25Y-2.42
X3.25Y-2.52
X3.2731Y-6.06
X3.29Y-7.65
X3.31Y-7.95
X3.31Y-8.13
X3.31Y-8.23
X3.31Y-8.33
X3.31Y-8.43
X3.31Y-8.53
X3.31Y-8.63
X3.31Y-8.73
X3.31Y-8.83
X3.31Y-8.93
X3.31Y-9.03
X3.3884Y-7.65
X3.4587Y-4.968
X3.4587Y-5.068
X3.4587Y-5.168
X3.4587Y-5.268
X3.4587Y-5.368
X3.4587Y-5.468
X3.4587Y-5.568
X3.4587Y-5.668
X3.46Y-3.93
X3.46Y-4.03
X3.46Y-4.13
X3.46Y-4.23
X3.46Y-4.33
X3.46Y-4.43
X3.46Y-4.53
X3.46Y-4.63
X3.47Y-6.06
X3.48Y-6.24
X3.48Y-6.34
X3.48Y-6.44
X3.48Y-6.54
X3.48Y-6.64
X3.48Y-6.74
X3.48Y-6.84
X3.5Y-7.2704
X3.5Y-7.3704
X3.5Y-7.4704
X3.5Y-7.5704
X3.5Y-7.83
X3.5Y-8.134
X3.5Y-8.234
X3.5Y-8.334
X3.5Y-8.434
X3.5Y-8.534
X3.5Y-8.634
X3.5Y-8.734
X3.5Y-8.834
X3.5Y-8.934
X3.5Y-9.034
X3.5931Y-7.95
X3.6031Y-7.09
X3.62Y-4.58
X3.63Y-4.34
X3.65Y-5.07
X3.65Y-5.17
X3.65Y-5.27
X3.65Y-5.37
X3.65Y-5.47
X3.65Y-5.57
X3.65Y-5.67
X3.67Y-6.24
X3.67Y-6.34
X3.67Y-6.44
X3.67Y-6.54
X3.67Y-6.64
X3.67Y-6.74
X3.67Y-6.84
X3.6717Y-1.7317
X3.6717Y-1.8317
X3.6717Y-1.9317
X3.6717Y-2.0317
X3.6717Y-2.1317
X3.6717Y-2.2317
X3.6717Y-2.3317
X3.6717Y-2.4317
X3.6717Y-2.5317
X3.6717Y-2.6317
X3.6717Y-2.7317
X3.6717Y-2.8317
X3.6717Y-2.9317
X3.6717Y-3.0317
X3.6717Y-3.1317
X3.6717Y-3.2317
X3.6717Y-3.3317
X3.6717Y-3.4317
X3.6717Y-3.5317
X3.6717Y-3.6317
X3.7531Y-4.89
X3.7631Y-6.06
X3.79Y-7.95
X3.8Y-7.09
X3.8Y-7.2704
X3.8Y-7.3704
X3.8Y-7.4704
X3.8Y-7.5704
X3.8Y-7.83
X3.8Y-8.134
X3.8Y-8.234
X3.8Y-8.334
X3.8Y-8.434
X3.8Y-8.534
X3.8Y-8.634
X3.8Y-8.734
X3.8Y-8.834
X3.8Y-8.934
X3.8Y-9.034
X3.92Y-4.58
X3.93Y-4.34
X3.95Y-4.89
X3.95Y-5.07
X3.95Y-5.17
X3.95Y-5.27
X3.95Y-5.37
X3.95Y-5.47
X3.95Y-5.57
X3.95Y-5.67
X3.96Y-6.06
X3.97Y-6.24
X3.97Y-6.34
X3.97Y-6.44
X3.97Y-6.54
X3.97Y-6.64
X3.97Y-6.74
X3.97Y-6.84
X3.99Y-7.26
X3.99Y-7.36
X3.99Y-7.46
X3.99Y-7.56
X3.99Y-7.66
X3.99Y-7.76
X3.99Y-7.86
X3.99Y-8.33
X3.99Y-8.43
X3.99Y-8.53
X3.99Y-8.63
X3.99Y-8.73
X3.99Y-8.83
X3.99Y-8.93
X3.99Y-9.03
X4.0931Y-7.08
X4.0931Y-8.15
X4.16Y-4.03
X4.16Y-4.13
X4.16Y-4.23
X4.16Y-4.33
X4.16Y-4.43
X4.16Y-4.53
X4.16Y-4.63
X4.16Y-6.24
X4.16Y-6.34
X4.16Y-6.44
X4.16Y-6.54
X4.16Y-6.64
X4.16Y-6.74
X4.16Y-6.84
X4.2631Y-3.81
X4.2631Y-6.06
X4.2717Y-1.7317
X4.2717Y-1.8317
X4.2717Y-1.9317
X4.2717Y-2.0317
X4.2717Y-2.1317
X4.2717Y-2.2317
X4.2717Y-2.3317
X4.2717Y-2.4317
X4.2717Y-2.5317
X4.2717Y-2.6317
X4.2717Y-2.7317
X4.2717Y-2.8317
X4.2717Y-2.9317
X4.2717Y-3.0317
X4.2717Y-3.1317
X4.2717Y-3.2317
X4.2717Y-3.3317
X4.2717Y-3.4317
X4.2717Y-3.5317
X4.2717Y-3.6317
X4.29Y-7.08
X4.29Y-7.26
X4.29Y-7.36
X4.29Y-7.46
X4.29Y-7.56
X4.29Y-7.66
X4.29Y-7.76
X4.29Y-7.86
X4.29Y-8.15
X4.29Y-8.33
X4.29Y-8.43
X4.29Y-8.53
X4.29Y-8.63
X4.29Y-8.73
X4.29Y-8.83
X4.29Y-8.93
X4.29Y-9.03
X4.38Y-1.73
X4.38Y-1.9269
X4.46Y-3.81
X4.46Y-4.03
X4.46Y-4.13
X4.46Y-4.23
X4.46Y-4.33
X4.46Y-4.43
X4.46Y-4.53
X4.46Y-4.63
X4.46Y-6.06
X4.46Y-6.24
X4.46Y-6.34
X4.46Y-6.44
X4.46Y-6.54
X4.46Y-6.64
X4.46Y-6.74
X4.46Y-6.84
X4.58Y-1.95
X4.58Y-2.05
X4.58Y-2.15
X4.58Y-2.25
X4.58Y-2.35
X4.58Y-2.45
X4.58Y-2.55
X4.59Y-3.01
X4.59Y-3.11
X4.59Y-3.21
X4.59Y-3.31
X4.59Y-3.41
X4.59Y-3.51
X4.59Y-3.61
X4.6831Y-1.77
X4.6931Y-2.79
X4.74Y-4.04
X4.74Y-4.14
X4.74Y-4.24
X4.74Y-4.34
X4.74Y-4.44
X4.74Y-4.54
X4.74Y-4.64
X4.8073Y-7.5298
X4.8073Y-7.6298
X4.8073Y-7.7298
X4.8073Y-7.8298
X4.8073Y-7.9298
X4.8073Y-8.0298
X4.8073Y-8.1298
X4.8073Y-8.2298
X4.8073Y-8.3298
X4.8073Y-8.4298
X4.8073Y-8.5298
X4.8073Y-8.6298
X4.8073Y-8.7298
X4.8073Y-8.8298
X4.8073Y-8.9298
X4.8073Y-9.0298
X4.8431Y-3.82
X4.88Y-1.77
X4.88Y-1.95
X4.88Y-2.05
X4.88Y-2.15
X4.88Y-2.25
X4.88Y-2.35
X4.88Y-2.45
X4.88Y-2.55
X4.89Y-2.79
X4.89Y-3.01
X4.89Y-3.11
X4.89Y-3.21
X4.89Y-3.31
X4.89Y-3.41
X4.89Y-3.51
X4.89Y-3.61
X5.04Y-3.82
X5.04Y-4.04
X5.04Y-4.14
X5.04Y-4.24
X5.04Y-4.34
X5.04Y-4.44
X5.04Y-4.54
X5.04Y-4.64
X5.14Y-2.89
X5.2131Y-7.35
X5.4073Y-7.5298
X5.4073Y-7.6298
X5.4073Y-7.7298
X5.4073Y-7.8298
X5.4073Y-7.9298
X5.4073Y-8.0298
X5.4073Y-8.1298
X5.4073Y-8.2298
X5.4073Y-8.3298
X5.4073Y-8.4298
X5.4073Y-8.5298
X5.4073Y-8.6298
X5.4073Y-8.7298
X5.4073Y-8.8298
X5.4073Y-8.9298
X5.4073Y-9.0298
X5.41Y-7.35
X5.44Y-2.89
X5.47Y-6.54
X5.53Y-5.44
X5.53Y-5.54
X5.53Y-5.64
X5.53Y-5.74
X5.53Y-5.84
X5.53Y-5.94
X5.53Y-6.04
X5.53Y-6.14
X5.53Y-6.24
X5.594Y-7.5298
X5.594Y-7.6298
X5.594Y-7.7298
X5.594Y-7.8298
X5.594Y-7.9298
X5.594Y-8.0298
X5.594Y-8.1298
X5.594Y-8.2298
X5.594Y-8.3298
X5.594Y-8.4298
X5.594Y-8.5298
X5.594Y-8.6298
X5.594Y-8.7298
X5.594Y-8.8298
X5.594Y-8.9298
X5.594Y-9.0298
X5.63Y-5.34
X5.63Y-5.44
X5.63Y-5.54
X5.63Y-5.64
X5.63Y-5.74
X5.63Y-5.84
X5.63Y-5.94
X5.63Y-6.04
X5.63Y-6.14
X5.63Y-6.24
X5.63Y-6.34
X5.69Y-7.07
X5.69Y-7.2669
X5.73Y-5.34
X5.73Y-5.44
X5.73Y-6.24
X5.73Y-6.34
X5.74Y-2.15
X5.74Y-2.25
X5.74Y-2.35
X5.74Y-2.45
X5.74Y-2.55
X5.74Y-2.65
X5.74Y-2.75
X5.74Y-2.85
X5.74Y-2.95
X5.74Y-3.05
X5.77Y-6.54
X5.82Y-3.94
X5.82Y-4.04
X5.82Y-4.14
X5.82Y-4.24
X5.82Y-4.34
X5.82Y-4.44
X5.82Y-4.54
X5.83Y-5.34
X5.83Y-5.44
X5.83Y-6.24
X5.83Y-6.34
X5.87Y-6.54
X5.87Y-7.07
X5.87Y-7.37
X5.9231Y-3.76
X5.93Y-5.34
X5.93Y-5.44
X5.93Y-6.24
X5.93Y-6.34
X5.97Y-7.07
X5.97Y-7.37
X6.03Y-5.34
X6.03Y-5.44
X6.03Y-6.24
X6.03Y-6.34
X6.0669Y-6.54
X6.07Y-7.07
X6.07Y-7.37
X6.09Y-2.29
X6.09Y-2.39
X6.09Y-2.49
X6.09Y-2.59
X6.09Y-2.69
X6.09Y-2.79
X6.09Y-2.89
X6.12Y-3.76
X6.12Y-3.94
X6.12Y-4.04
X6.12Y-4.14
X6.12Y-4.24
X6.12Y-4.34
X6.12Y-4.44
X6.12Y-4.54
X6.13Y-5.34
X6.13Y-5.44
X6.13Y-6.24
X6.13Y-6.34
X6.17Y-6.54
X6.17Y-7.07
X6.17Y-7.37
X6.1931Y-2.11
X6.194Y-7.5298
X6.194Y-7.6298
X6.194Y-7.7298
X6.194Y-7.8298
X6.194Y-7.9298
X6.194Y-8.0298
X6.194Y-8.1298
X6.194Y-8.2298
X6.194Y-8.3298
X6.194Y-8.4298
X6.194Y-8.5298
X6.194Y-8.6298
X6.194Y-8.7298
X6.194Y-8.8298
X6.194Y-8.9298
X6.194Y-9.0298
X6.23Y-5.34
X6.23Y-5.44
X6.23Y-6.24
X6.23Y-6.34
X6.25Y-3.94
X6.25Y-4.04
X6.25Y-4.14
X6.25Y-4.24
X6.25Y-4.34
X6.25Y-4.44
X6.25Y-4.54
X6.33Y-5.34
X6.33Y-5.44
X6.33Y-6.24
X6.33Y-6.34
X6.3531Y-3.76
X6.3857Y-7.5298
X6.3857Y-7.6298
X6.3857Y-7.7298
X6.3857Y-7.8298
X6.3857Y-7.9298
X6.3857Y-8.0298
X6.3857Y-8.1298
X6.3857Y-8.2298
X6.3857Y-8.3298
X6.3857Y-8.4298
X6.3857Y-8.5298
X6.3857Y-8.6298
X6.3857Y-8.7298
X6.3857Y-8.8298
X6.3857Y-8.9298
X6.3857Y-9.0298
X6.39Y-2.11
X6.39Y-2.29
X6.39Y-2.39
X6.39Y-2.49
X6.39Y-2.59
X6.39Y-2.69
X6.39Y-2.79
X6.39Y-2.89
X6.42Y-3.29
X6.43Y-5.34
X6.43Y-5.44
X6.43Y-5.54
X6.43Y-5.64
X6.43Y-5.74
X6.43Y-5.84
X6.43Y-5.94
X6.43Y-6.04
X6.43Y-6.14
X6.43Y-6.24
X6.43Y-6.34
X6.47Y-6.54
X6.49Y-7.07
X6.49Y-7.2669
X6.52Y-2.19
X6.52Y-2.29
X6.52Y-2.39
X6.52Y-2.49
X6.52Y-2.59
X6.52Y-2.69
X6.52Y-2.79
X6.52Y-2.89
X6.52Y-3.29
X6.53Y-5.44
X6.53Y-5.54
X6.53Y-5.64
X6.53Y-5.74
X6.53Y-5.84
X6.53Y-5.94
X6.53Y-6.04
X6.53Y-6.14
X6.53Y-6.24
X6.55Y-3.76
X6.55Y-3.94
X6.55Y-4.04
X6.55Y-4.14
X6.55Y-4.24
X6.55Y-4.34
X6.55Y-4.44
X6.55Y-4.54
X6.62Y-3.29
X6.6231Y-2.01
X6.67Y-7.07
X6.67Y-7.37
X6.68Y-3.94
X6.68Y-4.04
X6.68Y-4.14
X6.68Y-4.24
X6.68Y-4.34
X6.68Y-4.44
X6.68Y-4.54
X6.72Y-3.29
X6.73Y-5.84
X6.73Y-6.14
X6.77Y-7.07
X6.77Y-7.37
X6.7831Y-3.76
X6.82Y-2.01
X6.82Y-2.19
X6.82Y-2.29
X6.82Y-2.39
X6.82Y-2.49
X6.82Y-2.59
X6.82Y-2.69
X6.82Y-2.79
X6.82Y-2.89
X6.82Y-3.29
X6.87Y-7.07
X6.87Y-7.37
X6.92Y-3.29
X6.95Y-2.19
X6.95Y-2.29
X6.95Y-2.39
X6.95Y-2.49
X6.95Y-2.59
X6.95Y-2.69
X6.95Y-2.79
X6.95Y-2.89
X6.97Y-7.07
X6.97Y-7.37
X6.98Y-3.76
X6.98Y-3.94
X6.98Y-4.04
X6.98Y-4.14
X6.98Y-4.24
X6.98Y-4.34
X6.98Y-4.44
X6.98Y-4.54
X6.9857Y-7.5298
X6.9857Y-7.6298
X6.9857Y-7.7298
X6.9857Y-7.8298
X6.9857Y-7.9298
X6.9857Y-8.0298
X6.9857Y-8.1298
X6.9857Y-8.2298
X6.9857Y-8.3298
X6.9857Y-8.4298
X6.9857Y-8.5298
X6.9857Y-8.6298
X6.9857Y-8.7298
X6.9857Y-8.8298
X6.9857Y-8.9298
X6.9857Y-9.0298
X7.02Y-3.29
X7.0531Y-2.01
X7.11Y-3.94
X7.11Y-4.04
X7.11Y-4.14
X7.11Y-4.24
X7.11Y-4.34
X7.11Y-4.44
X7.11Y-4.54
X7.12Y-3.29
X7.2131Y-3.76
X7.22Y-3.29
X7.25Y-2.01
X7.25Y-2.19
X7.25Y-2.29
X7.25Y-2.39
X7.25Y-2.49
X7.25Y-2.59
X7.25Y-2.69
X7.25Y-2.79
X7.25Y-2.89
X7.32Y-3.29
X7.38Y-2.29
X7.38Y-2.39
X7.38Y-2.49
X7.38Y-2.59
X7.38Y-2.69
X7.38Y-2.79
X7.38Y-2.89
X7.41Y-3.76
X7.41Y-3.94
X7.41Y-4.04
X7.41Y-4.14
X7.41Y-4.24
X7.41Y-4.34
X7.41Y-4.44
X7.41Y-4.54
X7.4831Y-2.11
X7.54Y-3.84
X7.54Y-3.94
X7.54Y-4.04
X7.54Y-4.14
X7.54Y-4.24
X7.54Y-4.34
X7.54Y-4.44
X7.54Y-4.54
X7.6431Y-3.66
X7.68Y-2.11
X7.68Y-2.29
X7.68Y-2.39
X7.68Y-2.49
X7.68Y-2.59
X7.68Y-2.69
X7.68Y-2.79
X7.68Y-2.89
X7.84Y-3.66
X7.84Y-3.84
X7.84Y-3.94
X7.84Y-4.04
X7.84Y-4.14
X7.84Y-4.24
X7.84Y-4.34
X7.84Y-4.44
X7.84Y-4.54
X7.85Y-5.06
X7.85Y-5.16
X7.85Y-5.26
X7.85Y-5.36
X7.85Y-5.46
X7.85Y-5.56
X7.85Y-5.66
X7.85Y-5.76
X7.85Y-5.86
X7.85Y-5.96
X7.85Y-6.06
X7.85Y-6.16
X7.85Y-6.26
X7.85Y-6.36
X7.85Y-6.79
X7.85Y-6.89
X7.85Y-6.99
X7.85Y-7.09
X7.85Y-7.19
X7.85Y-7.29
X7.85Y-7.39
X7.85Y-7.49
X7.85Y-7.59
X7.85Y-7.69
X7.85Y-8.13
X7.85Y-8.23
X7.85Y-8.33
X7.85Y-8.43
X7.85Y-8.53
X7.85Y-8.63
X7.85Y-8.73
X7.85Y-8.83
X7.85Y-8.93
X7.85Y-9.03
X7.9531Y-4.88
X7.9531Y-6.62
X7.9531Y-7.95
X7.96Y-2.39
X7.96Y-2.49
X7.96Y-2.59
X7.96Y-2.69
X7.96Y-2.79
X7.96Y-2.89
X7.96Y-2.99
X7.97Y-3.6363
X7.97Y-3.7363
X7.97Y-3.8363
X7.97Y-3.9363
X7.97Y-4.0363
X7.97Y-4.1363
X7.97Y-4.2363
X7.97Y-4.3363
X7.97Y-4.4363
X7.97Y-4.5363
X8.15Y-4.88
X8.15Y-5.06
X8.15Y-5.16
X8.15Y-5.26
X8.15Y-5.36
X8.15Y-5.46
X8.15Y-5.56
X8.15Y-5.66
X8.15Y-5.76
X8.15Y-5.86
X8.15Y-5.96
X8.15Y-6.06
X8.15Y-6.16
X8.15Y-6.26
X8.15Y-6.36
X8.15Y-6.62
X8.15Y-6.79
X8.15Y-6.89
X8.15Y-6.99
X8.15Y-7.09
X8.15Y-7.19
X8.15Y-7.29
X8.15Y-7.39
X8.15Y-7.49
X8.15Y-7.59
X8.15Y-7.69
X8.15Y-7.95
X8.15Y-8.13
X8.15Y-8.23
X8.15Y-8.33
X8.15Y-8.43
X8.15Y-8.53
X8.15Y-8.63
X8.15Y-8.73
X8.15Y-8.83
X8.15Y-8.93
X8.15Y-9.03
X8.26Y-2.39
X8.26Y-2.49
X8.26Y-2.59
X8.26Y-2.69
X8.26Y-2.79
X8.26Y-2.89
X8.26Y-2.99
X8.27Y-3.6363
X8.27Y-3.7363
X8.27Y-3.8363
X8.27Y-3.9363
X8.27Y-4.0363
X8.27Y-4.1363
X8.27Y-4.2363
X8.27Y-4.3363
X8.27Y-4.4363
X8.27Y-4.5363
X8.2731Y-2.1
X8.35Y-5.06
X8.35Y-5.16
X8.35Y-5.26
X8.35Y-5.36
X8.35Y-5.46
X8.35Y-5.56
X8.35Y-5.66
X8.35Y-5.76
X8.35Y-5.86
X8.35Y-5.96
X8.35Y-6.06
X8.35Y-6.16
X8.35Y-6.26
X8.35Y-6.36
X8.35Y-6.79
X8.35Y-6.89
X8.35Y-6.99
X8.35Y-7.09
X8.35Y-7.19
X8.35Y-7.29
X8.35Y-7.39
X8.35Y-7.49
X8.35Y-7.59
X8.35Y-7.69
X8.35Y-8.13
X8.35Y-8.23
X8.35Y-8.33
X8.35Y-8.43
X8.35Y-8.53
X8.35Y-8.63
X8.35Y-8.73
X8.35Y-8.83
X8.35Y-8.93
X8.35Y-9.03
X8.38Y-3.64
X8.38Y-3.8369
X8.4531Y-4.88
X8.4531Y-6.62
X8.4531Y-7.95
X8.47Y-2.1
X8.5879Y-2.6352
X8.5879Y-2.7352
X8.5879Y-2.8352
X8.5879Y-2.9352
X8.5879Y-3.0352
X8.5879Y-3.1352
X8.5879Y-3.2352
X8.5879Y-3.3352
X8.5879Y-3.4352
X8.5879Y-3.5352
X8.5879Y-3.6352
X8.5879Y-3.7352
X8.5879Y-3.8352
X8.5879Y-3.9352
X8.5879Y-4.0352
X8.5879Y-4.1352
X8.5879Y-4.2352
X8.5879Y-4.3352
X8.5879Y-4.4352
X8.5879Y-4.5352
X8.65Y-4.88
X8.65Y-5.06
X8.65Y-5.16
X8.65Y-5.26
X8.65Y-5.36
X8.65Y-5.46
X8.65Y-5.56
X8.65Y-5.66
X8.65Y-5.76
X8.65Y-5.86
X8.65Y-5.96
X8.65Y-6.06
X8.65Y-6.16
X8.65Y-6.26
X8.65Y-6.36
X8.65Y-6.62
X8.65Y-6.79
X8.65Y-6.89
X8.65Y-6.99
X8.65Y-7.09
X8.65Y-7.19
X8.65Y-7.29
X8.65Y-7.39
X8.65Y-7.49
X8.65Y-7.59
X8.65Y-7.69
X8.65Y-7.95
X8.65Y-8.13
X8.65Y-8.23
X8.65Y-8.33
X8.65Y-8.43
X8.65Y-8.53
X8.65Y-8.63
X8.65Y-8.73
X8.65Y-8.83
X8.65Y-8.93
X8.65Y-9.03
X8.83Y-1.85
X8.85Y-5.06
X8.85Y-5.16
X8.85Y-5.26
X8.85Y-5.36
X8.85Y-5.46
X8.85Y-5.56
X8.85Y-5.66
X8.85Y-5.76
X8.85Y-5.86
X8.85Y-5.96
X8.85Y-6.06
X8.85Y-6.16
X8.85Y-6.26
X8.85Y-6.36
X8.85Y-6.79
X8.85Y-6.89
X8.85Y-6.99
X8.85Y-7.09
X8.85Y-7.19
X8.85Y-7.29
X8.85Y-7.39
X8.85Y-7.49
X8.85Y-7.59
X8.85Y-7.69
X8.85Y-8.12
X8.85Y-8.22
X8.85Y-8.32
X8.85Y-8.42
X8.85Y-8.52
X8.85Y-8.62
X8.85Y-8.72
X8.85Y-8.82
X8.85Y-8.92
X8.85Y-9.02
X8.9284Y-1.85
X8.9531Y-4.88
X8.9531Y-6.62
X8.9531Y-7.94
X8.9831Y-2.45
X9.15Y-4.88
X9.15Y-5.06
X9.15Y-5.16
X9.15Y-5.26
X9.15Y-5.36
X9.15Y-5.46
X9.15Y-5.56
X9.15Y-5.66
X9.15Y-5.76
X9.15Y-5.86
X9.15Y-5.96
X9.15Y-6.06
X9.15Y-6.16
X9.15Y-6.26
X9.15Y-6.36
X9.15Y-6.62
X9.15Y-6.79
X9.15Y-6.89
X9.15Y-6.99
X9.15Y-7.09
X9.15Y-7.19
X9.15Y-7.29
X9.15Y-7.39
X9.15Y-7.49
X9.15Y-7.59
X9.15Y-7.69
X9.15Y-7.94
X9.15Y-8.12
X9.15Y-8.22
X9.15Y-8.32
X9.15Y-8.42
X9.15Y-8.52
X9.15Y-8.62
X9.15Y-8.72
X9.15Y-8.82
X9.15Y-8.92
X9.15Y-9.02
X9.18Y-2.45
X9.1879Y-2.6352
X9.1879Y-2.7352
X9.1879Y-2.8352
X9.1879Y-2.9352
X9.1879Y-3.0352
X9.1879Y-3.1352
X9.1879Y-3.2352
X9.1879Y-3.3352
X9.1879Y-3.4352
X9.1879Y-3.5352
X9.1879Y-3.6352
X9.1879Y-3.7352
X9.1879Y-3.8352
X9.1879Y-3.9352
X9.1879Y-4.0352
X9.1879Y-4.1352
X9.1879Y-4.2352
X9.1879Y-4.3352
X9.1879Y-4.4352
X9.1879Y-4.5352
X9.35Y-5.06
X9.35Y-5.16
X9.35Y-5.26
X9.35Y-5.36
X9.35Y-5.46
X9.35Y-5.56
X9.35Y-5.66
X9.35Y-5.76
X9.35Y-5.86
X9.35Y-5.96
X9.35Y-6.06
X9.35Y-6.16
X9.35Y-6.26
X9.35Y-6.36
X9.35Y-6.79
X9.35Y-6.89
X9.35Y-6.99
X9.35Y-7.09
X9.35Y-7.19
X9.35Y-7.29
X9.35Y-7.39
X9.35Y-7.49
X9.35Y-7.59
X9.35Y-7.69
X9.35Y-8.12
X9.35Y-8.22
X9.35Y-8.32
X9.35Y-8.42
X9.35Y-8.52
X9.35Y-8.62
X9.35Y-8.72
X9.35Y-8.82
X9.35Y-8.92
X9.35Y-9.02
X9.44Y-2.26
X9.4531Y-4.88
X9.4531Y-6.62
X9.4531Y-7.94
X9.46Y-2.65
X9.46Y-2.75
X9.46Y-2.85
X9.46Y-2.95
X9.46Y-3.05
X9.46Y-3.15
X9.46Y-3.25
X9.46Y-3.35
X9.46Y-3.45
X9.46Y-3.55
X9.46Y-3.95
X9.46Y-4.05
X9.46Y-4.15
X9.46Y-4.25
X9.46Y-4.35
X9.46Y-4.45
X9.46Y-4.55
X9.5031Y-3.77
X9.5384Y-2.26
X9.5631Y-2.47
X9.65Y-4.88
X9.65Y-5.06
X9.65Y-5.16
X9.65Y-5.26
X9.65Y-5.36
X9.65Y-5.46
X9.65Y-5.56
X9.65Y-5.66
X9.65Y-5.76
X9.65Y-5.86
X9.65Y-5.96
X9.65Y-6.06
X9.65Y-6.16
X9.65Y-6.26
X9.65Y-6.36
X9.65Y-6.62
X9.65Y-6.79
X9.65Y-6.89
X9.65Y-6.99
X9.65Y-7.09
X9.65Y-7.19
X9.65Y-7.29
X9.65Y-7.39
X9.65Y-7.49
X9.65Y-7.59
X9.65Y-7.69
X9.65Y-7.94
X9.65Y-8.12
X9.65Y-8.22
X9.65Y-8.32
X9.65Y-8.42
X9.65Y-8.52
X9.65Y-8.62
X9.65Y-8.72
X9.65Y-8.82
X9.65Y-8.92
X9.65Y-9.02
X9.7Y-3.77
X9.76Y-2.47
X9.76Y-2.65
X9.76Y-2.75
X9.76Y-2.85
X9.76Y-2.95
X9.76Y-3.05
X9.76Y-3.15
X9.76Y-3.25
X9.76Y-3.35
X9.76Y-3.45
X9.76Y-3.55
X9.76Y-3.95
X9.76Y-4.05
X9.76Y-4.15
X9.76Y-4.25
X9.76Y-4.35
X9.76Y-4.45
X9.76Y-4.55
X9.78Y-2.26
X9.85Y-5.06
X9.85Y-5.16
X9.85Y-5.26
X9.85Y-5.36
X9.85Y-5.46
X9.85Y-5.56
X9.85Y-5.66
X9.85Y-5.76
X9.85Y-5.86
X9.85Y-5.96
X9.85Y-6.06
X9.85Y-6.16
X9.85Y-6.26
X9.85Y-6.36
X9.85Y-6.79
X9.85Y-6.89
X9.85Y-6.99
X9.85Y-7.09
X9.85Y-7.19
X9.85Y-7.29
X9.85Y-7.39
X9.85Y-7.49
X9.85Y-7.59
X9.85Y-7.69
X9.85Y-8.12
X9.85Y-8.22
X9.85Y-8.32
X9.85Y-8.42
X9.85Y-8.52
X9.85Y-8.62
X9.85Y-8.72
X9.85Y-8.82
X9.85Y-8.92
X9.85Y-9.02
X9.8784Y-2.26
X9.9531Y-4.88
X9.9531Y-6.62
X9.9531Y-7.94
X9.975Y-2.65
X9.975Y-2.75
X9.975Y-2.85
X9.975Y-2.95
X9.975Y-3.05
X9.975Y-3.15
X9.975Y-3.25
X9.975Y-3.35
X9.975Y-3.45
X9.975Y-3.55
X9.98Y-3.95
X9.98Y-4.05
X9.98Y-4.15
X9.98Y-4.25
X9.98Y-4.35
X9.98Y-4.45
X9.98Y-4.55
X10.0731Y-2.47
X10.0731Y-3.77
X10.15Y-4.88
X10.15Y-5.06
X10.15Y-5.16
X10.15Y-5.26
X10.15Y-5.36
X10.15Y-5.46
X10.15Y-5.56
X10.15Y-5.66
X10.15Y-5.76
X10.15Y-5.86
X10.15Y-5.96
X10.15Y-6.06
X10.15Y-6.16
X10.15Y-6.26
X10.15Y-6.36
X10.15Y-6.62
X10.15Y-6.79
X10.15Y-6.89
X10.15Y-6.99
X10.15Y-7.09
X10.15Y-7.19
X10.15Y-7.29
X10.15Y-7.39
X10.15Y-7.49
X10.15Y-7.59
X10.15Y-7.69
X10.15Y-7.94
X10.15Y-8.12
X10.15Y-8.22
X10.15Y-8.32
X10.15Y-8.42
X10.15Y-8.52
X10.15Y-8.62
X10.15Y-8.72
X10.15Y-8.82
X10.15Y-8.92
X10.15Y-9.02
X10.27Y-2.47
X10.27Y-3.77
X10.275Y-2.65
X10.275Y-2.75
X10.275Y-2.85
X10.275Y-2.95
X10.275Y-3.05
X10.275Y-3.15
X10.275Y-3.25
X10.275Y-3.35
X10.275Y-3.45
X10.275Y-3.55
X10.28Y-3.95
X10.28Y-4.05
X10.28Y-4.15
X10.28Y-4.25
X10.28Y-4.35
X10.28Y-4.45
X10.28Y-4.55
X10.35Y-5.06
X10.35Y-5.16
X10.35Y-5.26
X10.35Y-5.36
X10.35Y-5.46
X10.35Y-5.56
X10.35Y-5.66
X10.35Y-5.76
X10.35Y-5.86
X10.35Y-5.96
X10.35Y-6.06
X10.35Y-6.16
X10.35Y-6.26
X10.35Y-6.36
X10.35Y-6.79
X10.35Y-6.89
X10.35Y-6.99
X10.35Y-7.09
X10.35Y-7.19
X10.35Y-7.29
X10.35Y-7.39
X10.35Y-7.49
X10.35Y-7.59
X10.35Y-7.69
X10.35Y-8.12
X10.35Y-8.22
X10.35Y-8.32
X10.35Y-8.42
X10.35Y-8.52
X10.35Y-8.62
X10.35Y-8.72
X10.35Y-8.82
X10.35Y-8.92
X10.35Y-9.02
X10.4531Y-4.88
X10.4531Y-6.62
X10.4531Y-7.94
X10.46Y-2.0
X10.58Y-3.6
X10.58Y-3.9
X10.58Y-4.03
X10.58Y-4.2269
X10.65Y-4.88
X10.65Y-5.06
X10.65Y-5.16
X10.65Y-5.26
X10.65Y-5.36
X10.65Y-5.46
X10.65Y-5.56
X10.65Y-5.66
X10.65Y-5.76
X10.65Y-5.86
X10.65Y-5.96
X10.65Y-6.06
X10.65Y-6.16
X10.65Y-6.26
X10.65Y-6.36
X10.65Y-6.62
X10.65Y-6.79
X10.65Y-6.89
X10.65Y-6.99
X10.65Y-7.09
X10.65Y-7.19
X10.65Y-7.29
X10.65Y-7.39
X10.65Y-7.49
X10.65Y-7.59
X10.65Y-7.69
X10.65Y-7.94
X10.65Y-8.12
X10.65Y-8.22
X10.65Y-8.32
X10.65Y-8.42
X10.65Y-8.52
X10.65Y-8.62
X10.65Y-8.72
X10.65Y-8.82
X10.65Y-8.92
X10.65Y-9.02
X10.76Y-2.0
X10.78Y-3.63
X10.78Y-3.73
X10.78Y-3.83
X10.78Y-3.93
X10.78Y-4.03
X10.78Y-4.13
X10.85Y-5.06
X10.85Y-5.16
X10.85Y-5.26
X10.85Y-5.36
X10.85Y-5.46
X10.85Y-5.56
X10.85Y-5.66
X10.85Y-5.76
X10.85Y-5.86
X10.85Y-5.96
X10.85Y-6.06
X10.85Y-6.16
X10.85Y-6.26
X10.85Y-6.36
X10.85Y-6.79
X10.85Y-6.89
X10.85Y-6.99
X10.85Y-7.09
X10.85Y-7.19
X10.85Y-7.29
X10.85Y-7.39
X10.85Y-7.49
X10.85Y-7.59
X10.85Y-7.69
X10.85Y-8.12
X10.85Y-8.22
X10.85Y-8.32
X10.85Y-8.42
X10.85Y-8.52
X10.85Y-8.62
X10.85Y-8.72
X10.85Y-8.82
X10.85Y-8.92
X10.85Y-9.02
X10.87Y-1.66
X10.87Y-1.96
X10.88Y-3.53
X10.88Y-3.63
X10.88Y-3.73
X10.88Y-3.83
X10.88Y-3.93
X10.88Y-4.03
X10.88Y-4.13
X10.88Y-4.23
X10.9531Y-4.88
X10.9531Y-6.62
X10.9531Y-7.94
X10.98Y-3.53
X10.98Y-3.63
X10.98Y-4.13
X10.98Y-4.23
X11.08Y-3.53
X11.08Y-3.63
X11.08Y-4.13
X11.08Y-4.23
X11.0831Y-3.33
X11.15Y-4.88
X11.15Y-5.06
X11.15Y-5.16
X11.15Y-5.26
X11.15Y-5.36
X11.15Y-5.46
X11.15Y-5.56
X11.15Y-5.66
X11.15Y-5.76
X11.15Y-5.86
X11.15Y-5.96
X11.15Y-6.06
X11.15Y-6.16
X11.15Y-6.26
X11.15Y-6.36
X11.15Y-6.62
X11.15Y-6.79
X11.15Y-6.89
X11.15Y-6.99
X11.15Y-7.09
X11.15Y-7.19
X11.15Y-7.29
X11.15Y-7.39
X11.15Y-7.49
X11.15Y-7.59
X11.15Y-7.69
X11.15Y-7.94
X11.15Y-8.12
X11.15Y-8.22
X11.15Y-8.32
X11.15Y-8.42
X11.15Y-8.52
X11.15Y-8.62
X11.15Y-8.72
X11.15Y-8.82
X11.15Y-8.92
X11.15Y-9.02
X11.18Y-3.53
X11.18Y-3.63
X11.18Y-4.13
X11.18Y-4.23
X11.2Y-2.0
X11.28Y-3.33
X11.28Y-3.53
X11.28Y-3.63
X11.28Y-4.13
X11.28Y-4.23
X11.33Y-2.94
X11.35Y-5.06
X11.35Y-5.16
X11.35Y-5.26
X11.35Y-5.36
X11.35Y-5.46
X11.35Y-5.56
X11.35Y-5.66
X11.35Y-5.76
X11.35Y-5.86
X11.35Y-5.96
X11.35Y-6.06
X11.35Y-6.16
X11.35Y-6.26
X11.35Y-6.36
X11.35Y-6.79
X11.35Y-6.89
X11.35Y-6.99
X11.35Y-7.09
X11.35Y-7.19
X11.35Y-7.29
X11.35Y-7.39
X11.35Y-7.49
X11.35Y-7.59
X11.35Y-7.69
X11.35Y-8.13
X11.35Y-8.23
X11.35Y-8.33
X11.35Y-8.43
X11.35Y-8.53
X11.35Y-8.63
X11.35Y-8.73
X11.35Y-8.83
X11.35Y-8.93
X11.35Y-9.03
X11.38Y-3.53
X11.38Y-3.63
X11.38Y-3.73
X11.38Y-3.83
X11.38Y-3.93
X11.38Y-4.03
X11.38Y-4.13
X11.38Y-4.23
X11.4431Y-6.61
X11.45Y-3.05
X11.45Y-3.35
X11.4531Y-4.87
X11.4531Y-7.94
X11.48Y-3.63
X11.48Y-3.73
X11.48Y-3.83
X11.48Y-3.93
X11.48Y-4.03
X11.48Y-4.13
X11.5Y-2.0
X11.59Y-3.2
X11.61Y-1.66
X11.61Y-1.96
X11.63Y-2.94
X11.64Y-6.61
X11.65Y-4.87
X11.65Y-5.06
X11.65Y-5.16
X11.65Y-5.26
X11.65Y-5.36
X11.65Y-5.46
X11.65Y-5.56
X11.65Y-5.66
X11.65Y-5.76
X11.65Y-5.86
X11.65Y-5.96
X11.65Y-6.06
X11.65Y-6.16
X11.65Y-6.26
X11.65Y-6.36
X11.65Y-6.79
X11.65Y-6.89
X11.65Y-6.99
X11.65Y-7.09
X11.65Y-7.19
X11.65Y-7.29
X11.65Y-7.39
X11.65Y-7.49
X11.65Y-7.59
X11.65Y-7.69
X11.65Y-7.94
X11.65Y-8.13
X11.65Y-8.23
X11.65Y-8.33
X11.65Y-8.43
X11.65Y-8.53
X11.65Y-8.63
X11.65Y-8.73
X11.65Y-8.83
X11.65Y-8.93
X11.65Y-9.03
X11.67Y-3.75
X11.67Y-3.99
X11.67Y-4.23
X11.6884Y-3.2
X11.8669Y-3.75
X11.8669Y-3.99
X11.8669Y-4.23
X11.94Y-7.05
X11.94Y-7.35
X11.94Y-7.45
X11.94Y-7.75
X11.94Y-7.85
X11.94Y-8.15
X11.94Y-8.25
X11.94Y-8.55
X11.95Y-1.73
X12.0484Y-1.73
T5
X6.4862Y-1.4976
X6.4862Y-1.594
X6.5689Y-1.4976
X6.6711Y-1.4976
X6.7538Y-1.4976
X6.7538Y-1.596
X7.1962Y-1.4976
X7.1962Y-1.594
X7.2789Y-1.4976
X7.3811Y-1.4976
X7.4638Y-1.4976
X7.4638Y-1.596
T6
X1.38Y-1.8859
X1.48Y-1.8859
X2.83Y-7.23
X2.83Y-7.61
X2.93Y-7.23
X2.93Y-7.61
T7
X1.24Y-7.74
X1.24Y-7.84
X1.24Y-7.94
X1.24Y-8.04
X1.24Y-8.14
X1.24Y-8.24
X1.24Y-8.34
X1.24Y-8.44
X1.24Y-8.54
X1.24Y-8.64
X1.3Y-7.02
X1.3Y-7.12
X1.3Y-7.22
X1.3Y-7.32
X1.3Y-7.42
X1.34Y-7.74
X1.34Y-7.84
X1.34Y-7.94
X1.34Y-8.04
X1.34Y-8.14
X1.34Y-8.24
X1.34Y-8.34
X1.34Y-8.44
X1.34Y-8.54
X1.34Y-8.64
X1.37Y-2.18
X1.4Y-7.02
X1.4Y-7.12
X1.4Y-7.22
X1.4Y-7.32
X1.4Y-7.42
X1.44Y-7.74
X1.44Y-7.84
X1.44Y-7.94
X1.44Y-8.04
X1.44Y-8.14
X1.44Y-8.24
X1.44Y-8.34
X1.44Y-8.44
X1.44Y-8.54
X1.44Y-8.64
X1.47Y-2.18
X1.54Y-7.74
X1.54Y-7.84
X1.54Y-7.94
X1.54Y-8.04
X1.54Y-8.14
X1.54Y-8.24
X1.54Y-8.34
X1.54Y-8.44
X1.54Y-8.54
X1.54Y-8.64
X1.57Y-2.18
X1.64Y-8.14
X1.64Y-8.24
X1.64Y-8.34
X1.64Y-8.44
X1.64Y-8.54
X1.64Y-8.64
X1.64Y-8.74
X1.64Y-8.84
X1.64Y-8.94
X1.64Y-9.04
X1.6672Y-1.3322
X1.6672Y-1.4322
X1.74Y-8.14
X1.74Y-8.24
X1.74Y-8.34
X1.74Y-8.44
X1.74Y-8.54
X1.74Y-8.64
X1.74Y-8.74
X1.74Y-8.84
X1.74Y-8.94
X1.74Y-9.04
X1.7672Y-1.3322
X1.7672Y-1.4322
X1.81Y-2.48
X1.81Y-2.58
X1.84Y-8.14
X1.84Y-8.24
X1.84Y-8.34
X1.84Y-8.44
X1.84Y-8.54
X1.84Y-8.64
X1.84Y-8.74
X1.84Y-8.84
X1.84Y-8.94
X1.84Y-9.04
X1.8672Y-1.3322
X1.8672Y-1.4322
X1.94Y-8.14
X1.94Y-8.24
X1.94Y-8.34
X1.94Y-8.44
X1.94Y-8.54
X1.94Y-8.64
X1.94Y-8.74
X1.94Y-8.84
X1.94Y-8.94
X1.94Y-9.04
X1.9672Y-1.3322
X1.9672Y-1.4322
X2.04Y-8.14
X2.04Y-8.24
X2.04Y-8.34
X2.04Y-8.44
X2.04Y-8.54
X2.04Y-8.64
X2.04Y-8.74
X2.04Y-8.84
X2.04Y-8.94
X2.04Y-9.04
X2.0672Y-1.3322
X2.0672Y-1.4322
X2.14Y-8.14
X2.14Y-8.24
X2.14Y-8.34
X2.14Y-8.44
X2.14Y-8.54
X2.14Y-8.64
X2.14Y-8.74
X2.14Y-8.84
X2.14Y-8.94
X2.14Y-9.04
X2.1672Y-1.3322
X2.1672Y-1.4322
X2.24Y-8.14
X2.24Y-8.24
X2.24Y-8.34
X2.24Y-8.44
X2.24Y-8.54
X2.24Y-8.64
X2.24Y-8.74
X2.24Y-8.84
X2.24Y-8.94
X2.24Y-9.04
X2.2672Y-1.3322
X2.2672Y-1.4322
X2.34Y-8.14
X2.34Y-8.24
X2.34Y-8.34
X2.34Y-8.44
X2.34Y-8.54
X2.34Y-8.64
X2.34Y-8.74
X2.34Y-8.84
X2.34Y-8.94
X2.34Y-9.04
X2.3672Y-1.3322
X2.3672Y-1.4322
X2.41Y-7.71
X2.41Y-7.81
X2.41Y-7.91
X2.4672Y-1.3322
X2.4672Y-1.4322
X2.51Y-7.71
X2.51Y-7.81
X2.51Y-7.91
X2.5672Y-1.3322
X2.5672Y-1.4322
X2.6672Y-1.3322
X2.6672Y-1.4322
X2.7672Y-1.3322
X2.7672Y-1.4322
X2.8672Y-1.3322
X2.8672Y-1.4322
X2.9672Y-1.3322
X2.9672Y-1.4322
X3.0672Y-1.3322
X3.0672Y-1.4322
X3.1672Y-1.3322
X3.1672Y-1.4322
X3.2672Y-1.3322
X3.2672Y-1.4322
X3.32Y-3.23
X3.32Y-3.33
X3.32Y-3.43
X3.32Y-3.53
X3.32Y-3.63
X3.3672Y-1.3322
X3.3672Y-1.4322
X3.42Y-3.23
X3.42Y-3.33
X3.42Y-3.43
X3.42Y-3.53
X3.42Y-3.63
X3.4672Y-1.3322
X3.4672Y-1.4322
X3.5672Y-1.3322
X3.5672Y-1.4322
X3.65Y-4.0
X3.65Y-4.1
X3.89Y-4.0
X3.89Y-4.1
X4.1538Y-1.49
X4.17Y-4.9
X4.17Y-5.27
X4.17Y-5.37
X4.17Y-5.47
X4.17Y-5.57
X4.17Y-5.67
X4.2083Y-1.3782
X4.2628Y-1.49
X4.27Y-4.9
X4.27Y-5.27
X4.27Y-5.37
X4.27Y-5.47
X4.27Y-5.57
X4.27Y-5.67
X4.3174Y-1.3782
X4.3719Y-1.49
X4.4264Y-1.3782
X4.4809Y-1.49
X4.52Y-4.9
X4.52Y-5.18
X4.52Y-5.28
X4.52Y-5.38
X4.52Y-5.48
X4.52Y-5.58
X4.52Y-5.68
X4.5355Y-1.3782
X4.59Y-1.49
X4.62Y-4.9
X4.62Y-5.18
X4.62Y-5.28
X4.62Y-5.38
X4.62Y-5.48
X4.62Y-5.58
X4.62Y-5.68
X5.33Y-7.09
X5.4238Y-1.49
X5.43Y-7.09
X5.4783Y-1.3782
X5.5328Y-1.49
X5.5874Y-1.3782
X5.6419Y-1.49
X5.6964Y-1.3782
X5.7509Y-1.49
X5.8055Y-1.3782
X5.86Y-1.49
X8.26Y-1.74
X8.26Y-1.84
X8.36Y-1.74
X8.36Y-1.84
X8.59Y-2.29
X8.59Y-2.39
X8.81Y-2.29
X8.81Y-2.39
X10.4Y-1.69
X10.4Y-1.79
X10.7Y-3.0
X10.7Y-3.1
X10.7Y-3.2
X10.7Y-3.3
X10.8Y-3.0
X10.8Y-3.1
X10.8Y-3.2
X10.8Y-3.3
X10.8649Y-1.382
X10.91Y-1.3041
X10.91Y-1.46
X10.9551Y-1.382
X11.0002Y-1.3041
X11.0002Y-1.46
X11.0452Y-1.382
X11.06Y-1.81
X11.06Y-1.91
X11.06Y-2.01
X11.0903Y-1.3041
X11.0903Y-1.46
X11.1354Y-1.382
X11.1805Y-1.3041
X11.1805Y-1.46
X11.2256Y-1.382
X11.2706Y-1.3041
X11.2706Y-1.46
X11.49Y-2.5
X11.49Y-2.6
X11.49Y-2.7
X11.8Y-1.81
X11.8Y-1.91
X11.8Y-2.01
T8
X1.36Y-2.85
X1.36Y-3.0272
X1.6159Y-2.85
X1.6159Y-3.0272
X1.81Y-2.78
X1.81Y-3.08
X5.1383Y-2.1557
X5.1383Y-2.7123
X5.14Y-2.3414
X5.14Y-2.5269
X5.4383Y-2.1557
X5.4383Y-2.7123
X5.44Y-2.3414
X5.44Y-2.5269
X8.62Y-1.65
X8.62Y-2.05
X9.56Y-2.05
X9.66Y-2.05
X9.76Y-2.05
X10.58Y-2.26
X10.59Y-2.51
X10.59Y-2.76
X10.88Y-2.26
X10.89Y-2.51
X10.89Y-2.76
X11.0Y-2.26
X11.01Y-2.51
X11.01Y-2.76
X11.3Y-2.26
X11.31Y-2.51
X11.31Y-2.76
T9
X6.91Y-5.21
X7.11Y-5.21
T10
X1.8033Y-7.3
X2.61Y-7.3
T11
X8.35Y-1.41
X8.55Y-1.41
X8.75Y-1.41
X8.95Y-1.41
T12
X6.3543Y-1.3795
X6.62Y-1.3481
X6.8877Y-1.3795
X7.0643Y-1.3795
X7.33Y-1.3481
X7.5977Y-1.3795
T13
X1.35Y-8.96
X1.36Y-1.36
X10.5878Y-1.3793
X11.572Y-1.3793
X11.96Y-1.36
X11.96Y-8.96
T14
X3.8798Y-1.4782
X4.864Y-1.4782
X5.1498Y-1.4782
X6.134Y-1.4782
T7
G00X7.775Y-1.5525
M15
G01X7.775Y-1.6313
M16
G05
G00X7.9994Y-1.4738
M15
G01X7.9206Y-1.4738
M16
G05
G00X7.9994Y-1.71
M15
G01X7.9206Y-1.71
M16
G05
T0
M30
